<svg xmlns="http://www.w3.org/2000/svg" viewBox="0 0 461.001 461.001" width="461.001" height="461.001">
  <defs>
    <linearGradient id="youtubeGradient" x1="0%" y1="0%" x2="100%" y2="0%">
      <stop offset="0%" style="stop-color:#FF0000;stop-opacity:1" />
      <stop offset="100%" style="stop-color:#CC0000;stop-opacity:1" />
    </linearGradient>
  </defs>
  
  <!-- Background circle -->
  <circle cx="230.5" cy="230.5" r="230.5" fill="url(#youtubeGradient)"/>
  
  <!-- YouTube play button -->
  <path d="M365.257,67.393H95.744C42.866,67.393,0,110.259,0,163.137v134.728
    c0,52.878,42.866,95.744,95.744,95.744h269.513c52.878,0,95.744-42.866,95.744-95.744V163.137
    C461.001,110.259,418.135,67.393,365.257,67.393z M300.506,237.056l-126.06,60.123c-3.359,1.602-7.239-0.847-7.239-4.568V168.607
    c0-3.774,3.982-6.22,7.348-4.514l126.06,63.881C304.363,229.873,304.298,235.248,300.506,237.056z" fill="white"/>
</svg> 