<?xml version="1.0" encoding="UTF-8"?>
<!-- Facebook Profile Image (Square 1024x1024, optimized for circular crop) -->
<svg width="1024" height="1024" viewBox="0 0 1024 1024" xmlns="http://www.w3.org/2000/svg" role="img" aria-label="Mike Nelson Guitar Lessons profile image">
  <!-- Background: site brand color -->
  <rect x="0" y="0" width="1024" height="1024" fill="#92400E"/>

  <!-- Safe circle guide (hidden). Toggle to 'inline' if you want to see bounds -->
  <g style="display:none">
    <circle cx="512" cy="512" r="472" fill="none" stroke="#ffffff" stroke-opacity="0.25" stroke-dasharray="8 10"/>
  </g>

  <!-- Brand mark and text centered -->
  <g transform="translate(512,512)" fill="#FFFFFF" text-anchor="middle">
    <!-- Lucide guitar icon (robust scaling and precise centering) -->
    <g fill="none" stroke="#FFFFFF" stroke-width="2.5" stroke-linecap="round" stroke-linejoin="round" transform="translate(0,-190)">
      <g transform="scale(6) translate(-12,-12)" vector-effect="non-scaling-stroke">
        <path d="m11.9 12.1 4.514-4.514" />
        <path d="M20.1 2.3a1 1 0 0 0-1.4 0l-1.114 1.114A2 2 0 0 0 17 4.828v1.344a2 2 0 0 1-.586 1.414A2 2 0 0 1 17.828 7h1.344a2 2 0 0 0 1.414-.586L21.7 5.3a1 1 0 0 0 0-1.4z" />
        <path d="m6 16 2 2" />
        <path d="M8.23 9.85A3 3 0 0 1 11 8a5 5 0 0 1 5 5 3 3 0 0 1-1.85 2.77l-.92.38A2 2 0 0 0 12 18a4 4 0 0 1-4 4 6 6 0 0 1-6-6 4 4 0 0 1 4-4 2 2 0 0 0 1.85-1.23z" />
      </g>
    </g>

    <!-- Brand text: match site header font -->
    <text y="18" font-family="'Playfair Display', Georgia, 'Times New Roman', serif" font-size="92" font-weight="700" letter-spacing="0.2">Mike Nelson</text>
    <text y="112" font-family="'Playfair Display', Georgia, 'Times New Roman', serif" font-size="88" font-weight="700" letter-spacing="0.2">Guitar Lessons</text>
  </g>
</svg>


