<svg xmlns="http://www.w3.org/2000/svg" viewBox="0 0 400 300">
  <!-- Background -->
  <rect width="400" height="300" fill="#f8fafc"/>
  

  

  
  <!-- Fretboard background -->
  <rect x="120" y="80" width="160" height="140" fill="#fef7ed" stroke="#d97706" stroke-width="1"/>
  
  <!-- Nut (thick line at top) -->
  <line x1="120" y1="80" x2="280" y2="80" stroke="#374151" stroke-width="4"/>
  
  <!-- Frets (horizontal lines) -->
  <line x1="120" y1="115" x2="280" y2="115" stroke="#6b7280" stroke-width="1.5"/>
  <line x1="120" y1="150" x2="280" y2="150" stroke="#6b7280" stroke-width="1.5"/>
  <line x1="120" y1="185" x2="280" y2="185" stroke="#6b7280" stroke-width="1.5"/>
  <line x1="120" y1="220" x2="280" y2="220" stroke="#6b7280" stroke-width="1.5"/>
  
  <!-- Strings (6 vertical lines evenly spaced) -->
  <line x1="120" y1="80" x2="120" y2="220" stroke="#374151" stroke-width="2"/>
  <line x1="152" y1="80" x2="152" y2="220" stroke="#374151" stroke-width="2"/>
  <line x1="184" y1="80" x2="184" y2="220" stroke="#374151" stroke-width="2"/>
  <line x1="216" y1="80" x2="216" y2="220" stroke="#374151" stroke-width="2"/>
  <line x1="248" y1="80" x2="248" y2="220" stroke="#374151" stroke-width="2"/>
  <line x1="280" y1="80" x2="280" y2="220" stroke="#374151" stroke-width="2"/>
  
  <!-- F Major Barre Chord: 1-3-3-2-1-1 -->
  
  <!-- Low E string, 1st fret (finger 1 - barre) -->
  <circle cx="120" cy="97" r="12" fill="#92400e"/>
  <text x="120" y="103" text-anchor="middle" font-family="Arial, sans-serif" font-size="11" font-weight="bold" fill="white">1</text>
  
  <!-- A string, 3rd fret (finger 3) -->
  <circle cx="152" cy="167" r="12" fill="#92400e"/>
  <text x="152" y="173" text-anchor="middle" font-family="Arial, sans-serif" font-size="11" font-weight="bold" fill="white">3</text>
  
  <!-- D string, 3rd fret (finger 4) -->
  <circle cx="184" cy="167" r="12" fill="#92400e"/>
  <text x="184" y="173" text-anchor="middle" font-family="Arial, sans-serif" font-size="11" font-weight="bold" fill="white">4</text>
  
  <!-- G string, 2nd fret (finger 2) -->
  <circle cx="216" cy="132" r="12" fill="#92400e"/>
  <text x="216" y="138" text-anchor="middle" font-family="Arial, sans-serif" font-size="11" font-weight="bold" fill="white">2</text>
  
  <!-- B string, 1st fret (finger 1 - barre) -->
  <circle cx="248" cy="97" r="12" fill="#92400e"/>
  <text x="248" y="103" text-anchor="middle" font-family="Arial, sans-serif" font-size="11" font-weight="bold" fill="white">1</text>
  
  <!-- High E string, 1st fret (finger 1 - barre) -->
  <circle cx="280" cy="97" r="12" fill="#92400e"/>
  <text x="280" y="103" text-anchor="middle" font-family="Arial, sans-serif" font-size="11" font-weight="bold" fill="white">1</text>
  
  <!-- String labels (underneath) -->
  <text x="120" y="240" text-anchor="middle" font-family="Arial, sans-serif" font-size="12" font-weight="bold" fill="#374151">E</text>
  <text x="152" y="240" text-anchor="middle" font-family="Arial, sans-serif" font-size="12" font-weight="bold" fill="#374151">A</text>
  <text x="184" y="240" text-anchor="middle" font-family="Arial, sans-serif" font-size="12" font-weight="bold" fill="#374151">D</text>
  <text x="216" y="240" text-anchor="middle" font-family="Arial, sans-serif" font-size="12" font-weight="bold" fill="#374151">G</text>
  <text x="248" y="240" text-anchor="middle" font-family="Arial, sans-serif" font-size="12" font-weight="bold" fill="#374151">B</text>
  <text x="280" y="240" text-anchor="middle" font-family="Arial, sans-serif" font-size="12" font-weight="bold" fill="#374151">E</text>
</svg> 