<svg xmlns="http://www.w3.org/2000/svg" viewBox="0 0 400 300" width="400" height="300">
  <defs>
    <linearGradient id="bgGradient" x1="0%" y1="0%" x2="100%" y2="100%">
      <stop offset="0%" style="stop-color:#1f2937;stop-opacity:1" />
      <stop offset="100%" style="stop-color:#374151;stop-opacity:1" />
    </linearGradient>
    <linearGradient id="cardGradient" x1="0%" y1="0%" x2="0%" y2="100%">
      <stop offset="0%" style="stop-color:#ffffff;stop-opacity:1" />
      <stop offset="100%" style="stop-color:#f8fafc;stop-opacity:1" />
    </linearGradient>
    <linearGradient id="patternBg" x1="0%" y1="0%" x2="0%" y2="100%">
      <stop offset="0%" style="stop-color:#fef3c7;stop-opacity:1" />
      <stop offset="100%" style="stop-color:#fde68a;stop-opacity:1" />
    </linearGradient>
  </defs>
  
  <!-- Background -->
  <rect width="400" height="300" fill="url(#bgGradient)"/>
  
  <!-- Guitar silhouette in background -->
  <g transform="translate(320, 50)" opacity="0.1">
    <ellipse cx="20" cy="60" rx="15" ry="45" fill="white"/>
    <rect x="35" y="40" width="8" height="40" fill="white" rx="2"/>
    <circle cx="39" cy="25" r="8" fill="white"/>
  </g>
  
  <!-- Main Card -->
  <rect x="20" y="25" width="360" height="250" fill="url(#cardGradient)" stroke="#e5e7eb" stroke-width="1" rx="16"/>
  
  <!-- Pattern Display Area -->
  <rect x="40" y="60" width="320" height="100" fill="url(#patternBg)" stroke="#f59e0b" stroke-width="2" rx="12"/>
  
  <!-- Beat Numbers - properly centered within 320px pattern area -->
  <text x="60" y="90" text-anchor="middle" fill="#374151" font-family="Arial, sans-serif" font-size="16" font-weight="bold">1</text>
  <text x="100" y="90" text-anchor="middle" fill="#374151" font-family="Arial, sans-serif" font-size="16" font-weight="bold">&amp;</text>
  <text x="140" y="90" text-anchor="middle" fill="#374151" font-family="Arial, sans-serif" font-size="16" font-weight="bold">2</text>
  <text x="180" y="90" text-anchor="middle" fill="#374151" font-family="Arial, sans-serif" font-size="16" font-weight="bold">&amp;</text>
  <text x="220" y="90" text-anchor="middle" fill="#374151" font-family="Arial, sans-serif" font-size="16" font-weight="bold">3</text>
  <text x="260" y="90" text-anchor="middle" fill="#374151" font-family="Arial, sans-serif" font-size="16" font-weight="bold">&amp;</text>
  <text x="300" y="90" text-anchor="middle" fill="#374151" font-family="Arial, sans-serif" font-size="16" font-weight="bold">4</text>
  <text x="340" y="90" text-anchor="middle" fill="#374151" font-family="Arial, sans-serif" font-size="16" font-weight="bold">&amp;</text>
  
  <!-- Strumming Pattern with boxes - properly centered -->
  <!-- Beat 1: D (amber) -->
  <rect x="50" y="110" width="20" height="25" fill="#f59e0b" rx="4"/>
  <text x="60" y="127" text-anchor="middle" fill="white" font-family="Arial, sans-serif" font-size="16" font-weight="bold">D</text>
  
  <!-- Beat 1&: Skip (blank) -->
  <rect x="90" y="110" width="20" height="25" fill="none" stroke="#d1d5db" stroke-width="2" stroke-dasharray="3,3" rx="4"/>
  <text x="100" y="127" text-anchor="middle" fill="#9ca3af" font-family="Arial, sans-serif" font-size="14">-</text>
  
  <!-- Beat 2: D (amber) -->
  <rect x="130" y="110" width="20" height="25" fill="#f59e0b" rx="4"/>
  <text x="140" y="127" text-anchor="middle" fill="white" font-family="Arial, sans-serif" font-size="16" font-weight="bold">D</text>
  
  <!-- Beat 2&: U (blue) -->
  <rect x="170" y="110" width="20" height="25" fill="#3b82f6" rx="4"/>
  <text x="180" y="127" text-anchor="middle" fill="white" font-family="Arial, sans-serif" font-size="16" font-weight="bold">U</text>
  
  <!-- Beat 3: Skip (blank) -->
  <rect x="210" y="110" width="20" height="25" fill="none" stroke="#d1d5db" stroke-width="2" stroke-dasharray="3,3" rx="4"/>
  <text x="220" y="127" text-anchor="middle" fill="#9ca3af" font-family="Arial, sans-serif" font-size="14">-</text>
  
  <!-- Beat 3&: U (blue) -->
  <rect x="250" y="110" width="20" height="25" fill="#3b82f6" rx="4"/>
  <text x="260" y="127" text-anchor="middle" fill="white" font-family="Arial, sans-serif" font-size="16" font-weight="bold">U</text>
  
  <!-- Beat 4: D (amber) -->
  <rect x="290" y="110" width="20" height="25" fill="#f59e0b" rx="4"/>
  <text x="300" y="127" text-anchor="middle" fill="white" font-family="Arial, sans-serif" font-size="16" font-weight="bold">D</text>
  
  <!-- Beat 4&: U (blue) -->
  <rect x="330" y="110" width="20" height="25" fill="#3b82f6" rx="4"/>
  <text x="340" y="127" text-anchor="middle" fill="white" font-family="Arial, sans-serif" font-size="16" font-weight="bold">U</text>
 
  <!-- Features section -->
  <g transform="translate(50, 190)">
    <!-- Audio icon -->
    <circle cx="15" cy="15" r="12" fill="#3b82f6"/>
    <path d="M 10 10 L 10 20 L 15 17 L 20 20 L 20 10 Z" fill="white"/>
    <text x="35" y="20" fill="#374151" font-family="Arial, sans-serif" font-size="12" font-weight="bold">Interactive Audio</text>
  </g>
  
  <g transform="translate(200, 190)">
    <!-- Pattern icon -->
    <circle cx="15" cy="15" r="12" fill="#10b981"/>
    <text x="15" y="20" text-anchor="middle" fill="white" font-family="Arial, sans-serif" font-size="10" font-weight="bold">8</text>
    <text x="35" y="20" fill="#374151" font-family="Arial, sans-serif" font-size="12" font-weight="bold">Essential Patterns</text>
  </g>
  
  <!-- Decorative music notes -->
  <g transform="translate(50, 50)" opacity="0.2">
    <circle cx="0" cy="0" r="3" fill="#f59e0b"/>
    <rect x="3" y="-15" width="1" height="15" fill="#f59e0b"/>
  </g>
  
  <g transform="translate(340, 80)" opacity="0.2">
    <circle cx="0" cy="0" r="3" fill="#f59e0b"/>
    <rect x="3" y="-15" width="1" height="15" fill="#f59e0b"/>
  </g>
</svg> 