<svg width="800" height="192" viewBox="0 0 800 192" xmlns="http://www.w3.org/2000/svg">
  <!-- Background -->
  <rect width="800" height="192" fill="#FAFAF9"/>
  
  <!-- Dark Sidebar (left side) -->
  <rect width="140" height="192" fill="#292524"/>
  
  <!-- PracticeTrack Logo in sidebar -->
  <text x="70" y="30" font-family="sans-serif" font-size="16" font-weight="700" fill="#F97316" text-anchor="middle">PracticeTrack</text>
  
  <!-- Navigation Items -->
  <!-- Timer -->
  <g transform="translate(12, 65)">
    <rect width="116" height="24" fill="transparent" rx="8"/>
    <circle cx="12" cy="12" r="8" fill="none" stroke="rgba(255,255,255,0.8)" stroke-width="1.5"/>
    <polyline points="12,6 12,12 16,14" fill="none" stroke="rgba(255,255,255,0.8)" stroke-width="1.5"/>
    <text x="28" y="16" font-family="sans-serif" font-size="11" fill="rgba(255,255,255,0.8)">Timer</text>
  </g>
  
  <!-- Sessions (Active) -->
  <g transform="translate(12, 95)">
    <rect width="116" height="24" fill="#F97316" rx="8"/>
    <g stroke="white" stroke-width="1.5" fill="none">
      <line x1="8" y1="8" x2="16" y2="8"/>
      <line x1="8" y1="12" x2="16" y2="12"/>
      <line x1="8" y1="16" x2="16" y2="16"/>
      <circle cx="5" cy="8" r="1" fill="white"/>
      <circle cx="5" cy="12" r="1" fill="white"/>
      <circle cx="5" cy="16" r="1" fill="white"/>
    </g>
    <text x="28" y="16" font-family="sans-serif" font-size="11" fill="white" font-weight="500">Sessions</text>
  </g>
  
  <!-- Goals -->
  <g transform="translate(12, 125)">
    <rect width="116" height="24" fill="transparent" rx="8"/>
    <circle cx="12" cy="12" r="8" fill="none" stroke="rgba(255,255,255,0.8)" stroke-width="1.5"/>
    <circle cx="12" cy="12" r="5" fill="none" stroke="rgba(255,255,255,0.8)" stroke-width="1.5"/>
    <circle cx="12" cy="12" r="2" fill="rgba(255,255,255,0.8)"/>
    <text x="28" y="16" font-family="sans-serif" font-size="11" fill="rgba(255,255,255,0.8)">Goals</text>
  </g>
  
  <!-- Stats -->
  <g transform="translate(12, 155)">
    <rect width="116" height="24" fill="transparent" rx="8"/>
    <g stroke="rgba(255,255,255,0.8)" stroke-width="1.5" fill="none">
      <line x1="10" y1="18" x2="10" y2="10"/>
      <line x1="12" y1="18" x2="12" y2="6"/>
      <line x1="14" y1="18" x2="14" y2="12"/>
    </g>
    <text x="28" y="16" font-family="sans-serif" font-size="11" fill="rgba(255,255,255,0.8)">Stats</text>
  </g>
  
  <!-- Main Content Area -->
  <rect x="140" y="0" width="660" height="192" fill="#FAFAF9"/>
  
  <!-- Header -->
  <text x="160" y="35" font-family="sans-serif" font-size="20" font-weight="600" fill="#292524">Practice Sessions</text>
  
  <!-- View Toggle Buttons -->
  <rect x="520" y="20" width="80" height="28" fill="#F97316" rx="6"/>
  <text x="560" y="38" font-family="sans-serif" font-size="12" font-weight="500" fill="white" text-anchor="middle">Card View</text>
  
  <rect x="610" y="20" width="80" height="28" fill="#E7E5E4" rx="6"/>
  <text x="650" y="38" font-family="sans-serif" font-size="12" fill="#292524" text-anchor="middle">Table View</text>
  
  <!-- Search Bar -->
  <rect x="160" y="55" width="530" height="32" fill="white" stroke="#E7E5E4" stroke-width="1" rx="6"/>
  <text x="170" y="75" font-family="sans-serif" font-size="12" fill="#78716C">Search sessions...</text>
  
  <!-- Filter Buttons -->
  <rect x="160" y="95" width="40" height="24" fill="#F97316" rx="6"/>
  <text x="180" y="109" font-family="sans-serif" font-size="11" font-weight="500" fill="white" text-anchor="middle">All</text>
  
  <rect x="210" y="95" width="50" height="24" fill="#E7E5E4" rx="6"/>
  <text x="235" y="109" font-family="sans-serif" font-size="11" fill="#292524" text-anchor="middle">Songs</text>
  
  <rect x="270" y="95" width="65" height="24" fill="#E7E5E4" rx="6"/>
  <text x="302" y="109" font-family="sans-serif" font-size="11" fill="#292524" text-anchor="middle">Exercises</text>
  
  <!-- Session Cards -->
  <!-- Card 1 -->
  <rect x="160" y="130" width="200" height="50" fill="white" stroke="#E7E5E4" stroke-width="1" rx="8"/>
  <rect x="160" y="130" width="4" height="50" fill="#8B5A2B" rx="2"/>
  <rect x="170" y="138" width="80" height="16" fill="#F3E8FF" rx="8"/>
  <text x="210" y="148" font-family="sans-serif" font-size="9" fill="#8B5A2B" text-anchor="middle">Chord Practice</text>
  <text x="170" y="165" font-family="sans-serif" font-size="12" font-weight="600" fill="#292524">Voicing Practice</text>
  <text x="170" y="175" font-family="sans-serif" font-size="10" fill="#57534E">32m 15s</text>
  
  <!-- Card 2 -->
  <rect x="370" y="130" width="200" height="50" fill="white" stroke="#E7E5E4" stroke-width="1" rx="8"/>
  <rect x="370" y="130" width="4" height="50" fill="#1E40AF" rx="2"/>
  <rect x="380" y="138" width="60" height="16" fill="#EFF6FF" rx="8"/>
  <text x="410" y="148" font-family="sans-serif" font-size="9" fill="#1E40AF" text-anchor="middle">Footprints</text>
  <text x="380" y="165" font-family="sans-serif" font-size="12" font-weight="600" fill="#292524">Solo Analysis</text>
  <text x="380" y="175" font-family="sans-serif" font-size="10" fill="#57534E">45m 22s</text>
  
  <!-- Card 3 -->
  <rect x="580" y="130" width="200" height="50" fill="white" stroke="#E7E5E4" stroke-width="1" rx="8"/>
  <rect x="580" y="130" width="4" height="50" fill="#8B5A2B" rx="2"/>
  <rect x="590" y="138" width="70" height="16" fill="#F0F9FF" rx="8"/>
  <text x="625" y="148" font-family="sans-serif" font-size="9" fill="#8B5A2B" text-anchor="middle">Rhythm</text>
  <text x="590" y="165" font-family="sans-serif" font-size="12" font-weight="600" fill="#292524">Polyrhythm</text>
  <text x="590" y="175" font-family="sans-serif" font-size="10" fill="#57534E">28m 45s</text>
</svg> 